<svg xmlns="http://www.w3.org/2000/svg" preserveAspectRatio="xMidYMid meet" viewBox="12 13 148.5 82.5">
  <defs>
    <linearGradient id="redGradient" x1="0%" y1="0%" x2="100%" y2="0%">
      <stop offset="0%" style="stop-color:#FF3D00; stop-opacity:1"/>
      <stop offset="100%" style="stop-color:#D50000; stop-opacity:1"/>
    </linearGradient>
  </defs>
  
  <g transform="translate(-30, -15) scale(4)">
    <path d="M10.5 24.638l3.467-1.812V10.745l4.952 2.778-3.714 1.933v3.987L23.5 25v-3.745l-5.076-3.503 4.209-2.175v-3.866L13.967 7 10.5 8.812z" fill="#000000"/>
  </g>
  
  <text x="65" y="85" font-family="Arial, sans-serif" font-size="50" font-weight="bold" fill="#000000" letter-spacing="2">
    M
  </text>

  <g transform="translate(105, 55) scale(1)">
    <path fill-rule="evenodd" clip-rule="evenodd" d="M1.5 12c0-2.25 3.75-7.5 10.5-7.5S22.5 9.75 22.5 12s-3.75 7.5-10.5 7.5S1.5 14.25 1.5 12zM12 16.75a4.75 4.75 0 1 0 0-9.5 4.75 4.75 0 0 0 0 9.5zM14.7 12a2.7 2.7 0 1 1-5.4 0 2.7 2.7 0 0 1 5.4 0z" fill="#000000"/>
  </g>

  <text x="130" y="75" font-family="Arial, sans-serif" font-size="30" font-weight="bold" fill="#000000" letter-spacing="2">
    j
  </text>

  <g transform="translate(138, 55)">
    <path fill-rule="evenodd" clip-rule="evenodd" d="M1.5 12c0-2.25 3.75-7.5 10.5-7.5S22.5 9.75 22.5 12s-3.75 7.5-10.5 7.5S1.5 14.25 1.5 12zM12 16.75a4.75 4.75 0 1 0 0-9.5 4.75 4.75 0 0 0 0 9.5zM14.7 12a2.7 2.7 0 1 1-5.4 0 2.7 2.7 0 0 1 5.4 0z" fill="#000000"/>
  </g>
</svg>