<svg xmlns="http://www.w3.org/2000/svg" viewBox="10 20 140 80">
  <defs>
    <linearGradient id="redGradient" x1="0%" y1="0%" x2="100%" y2="0%">
      <stop offset="0%" style="stop-color:#FF3D00; stop-opacity:1"/>
      <stop offset="100%" style="stop-color:#D50000; stop-opacity:1"/>
    </linearGradient>
  </defs>
  <text x="30" y="75" font-family="'Brush Script MT', cursive" font-size="50"
        fill="url(#redGradient)">
    M
  </text>
  
  <g transform="translate(80, 55) scale(1)">
<path fill-rule="evenodd" clip-rule="evenodd" d="M1.5 12c0-2.25 3.75-7.5 10.5-7.5S22.5 9.75 22.5 12s-3.75 7.5-10.5 7.5S1.5 14.25 1.5 12zM12 16.75a4.75 4.75 0 1 0 0-9.5 4.75 4.75 0 0 0 0 9.5zM14.7 12a2.7 2.7 0 1 1-5.4 0 2.7 2.7 0 0 1 5.4 0z" fill="#000000"/>
  </g>
  
  <text x="105" y="75" font-family="Arial, sans-serif" font-size="30" font-weight="bold" fill="#000000" letter-spacing="2">
    j
  </text>

    <g transform="translate(113, 55) ">
    <path fill-rule="evenodd" clip-rule="evenodd" d="M1.5 12c0-2.25 3.75-7.5 10.5-7.5S22.5 9.75 22.5 12s-3.75 7.5-10.5 7.5S1.5 14.25 1.5 12zM12 16.75a4.75 4.75 0 1 0 0-9.5 4.75 4.75 0 0 0 0 9.5zM14.7 12a2.7 2.7 0 1 1-5.4 0 2.7 2.7 0 0 1 5.4 0z" fill="#000000"/>
  </g>
  

</svg>